<?xml version="1.0" standalone="no"?><!DOCTYPE svg PUBLIC "-//W3C//DTD SVG 1.1//EN" "http://www.w3.org/Graphics/SVG/1.1/DTD/svg11.dtd"><svg t="1553575067036" class="icon" style="" viewBox="0 0 1024 1024" version="1.1" xmlns="http://www.w3.org/2000/svg" p-id="4769" xmlns:xlink="http://www.w3.org/1999/xlink" width="200" height="200"><defs><style type="text/css"></style></defs><path d="M832 256 192 256C153.6 256 128 230.4 128 192l0 0c0-38.4 25.6-64 64-64l640 0c38.4 0 64 25.6 64 64l0 0C896 230.4 870.4 256 832 256z" p-id="4770" fill="#8a8a8a"></path><path d="M832 576 192 576C153.6 576 128 550.4 128 512l0 0c0-38.4 25.6-64 64-64l640 0c38.4 0 64 25.6 64 64l0 0C896 550.4 870.4 576 832 576z" p-id="4771" fill="#8a8a8a"></path><path d="M832 896 192 896c-38.4 0-64-25.6-64-64l0 0c0-38.4 25.6-64 64-64l640 0c38.4 0 64 25.6 64 64l0 0C896 870.4 870.4 896 832 896z" p-id="4772" fill="#8a8a8a"></path></svg>