<svg class="ldi-ku1ziz" width="67px"  height="67px"  xmlns="http://www.w3.org/2000/svg" xmlns:xlink="http://www.w3.org/1999/xlink" viewBox="0 0 100 100" preserveAspectRatio="xMidYMid" style="background: none;"><!--?xml version="1.0" encoding="utf-8"?--><!--Generator: Adobe Illustrator 21.0.0, SVG Export Plug-In . SVG Version: 6.00 Build 0)--><svg version="1.1" id="Layer_1" xmlns="http://www.w3.org/2000/svg" xmlns:xlink="http://www.w3.org/1999/xlink" x="0px" y="0px" viewBox="0 0 100 100" style="transform-origin: 50px 50px 0px;" xml:space="preserve"><g style="transform-origin: 50px 50px 0px;"><g style="transform-origin: 50px 50px 0px; transform: scale(0.6);"><g style="transform-origin: 50px 50px 0px;"><g><style type="text/css" class="ld ld-static" style="transform-origin: 50px 50px 0px; animation-duration: 1s; animation-delay: -1s; animation-direction: normal;">.st0{fill:#F4E6C8;} .st1{fill:#333333;} .st2{fill:#E0E0E0;} .st3{fill:#E15C64;} .st4{fill:#C33837;} .st5{fill:#D65A62;} .st6{fill:none;} .st7{fill:#F7B26A;} .st8{fill:#F47E5F;} .st9{opacity:0.2;fill:#353035;} .st10{fill:#666766;} .st11{fill:#A0C8D7;} .st12{fill:#77A4BD;} .st13{fill:#ACBD81;} .st14{fill:#FFFFFF;} .st15{fill:#849B87;} .st16{fill:none;stroke:#E0E0E0;stroke-width:4;stroke-miterlimit:10;} .st17{fill:none;stroke:#333333;stroke-width:4;stroke-miterlimit:10;} .st18{fill:#FFFFFF;stroke:#333333;stroke-width:4;stroke-miterlimit:10;} .st19{fill:none;stroke:#000000;stroke-width:4;stroke-miterlimit:10;} .st20{fill:#FFFFFF;stroke:#000000;stroke-width:4;stroke-miterlimit:10;} .st21{fill:#010101;} .st22{fill:#A5A6A6;} .st23{fill:#666666;} .st24{fill:#F3E4C7;} .st25{fill:none;stroke:#FFFFFF;stroke-linecap:round;stroke-miterlimit:10;} .st26{fill:#353035;} .st27{fill:#B93A38;} .st28{fill:#EA7C60;} .st29{fill:#E0E0E0;stroke:#F7B26A;stroke-width:8;stroke-miterlimit:10;} .st30{fill:none;stroke:#F7B26A;stroke-width:10;stroke-linecap:round;stroke-miterlimit:10;} .st31{fill:none;stroke:#010101;stroke-width:8;stroke-miterlimit:10;} .st32{fill:#F0AF6B;stroke:#010101;stroke-width:8;stroke-miterlimit:10;} .st33{fill:#829985;} .st34{fill:#A8B980;} .st35{fill:#F0AF6B;} .st36{fill:#4A3827;} .st37{fill:#332518;} .st38{fill:#E6E6E6;}</style><g style="transform-origin: 50px 50px 0px;"><g><g class="ld ld-static" style="transform-origin: 50px 50px 0px; animation-duration: 1s; animation-delay: -0.933333s; animation-direction: normal;"><path d="M82.7,87.7c-1.3,0-2.6-0.5-3.5-1.5L61.5,68.5c-2-2-2-5.1,0-7.1c2-2,5.1-2,7.1,0l17.7,17.7c2,2,2,5.1,0,7.1 C85.2,87.2,84,87.7,82.7,87.7z" fill="#f89708" style="fill: rgb(248, 151, 8);"></path></g></g></g><g style="transform-origin: 50px 50px 0px;"><g><g class="ld ld-static" style="transform-origin: 50px 50px 0px; animation-duration: 1s; animation-delay: -0.866667s; animation-direction: normal;"><ellipse transform="matrix(0.7071 -0.7071 0.7071 0.7071 -18.1414 43.7973)" class="st2" cx="43.8" cy="43.8" rx="27.5" ry="27.5" fill="#e0e0e0" style="fill: rgb(224, 224, 224);"></ellipse></g><g class="ld ld-static" style="transform-origin: 50px 50px 0px; animation-duration: 1s; animation-delay: -0.8s; animation-direction: normal;"><path class="st10" d="M43.8,75.3c-8.1,0-16.1-3.1-22.3-9.2c-12.3-12.3-12.3-32.3,0-44.5c12.3-12.3,32.3-12.3,44.5,0 c12.3,12.3,12.3,32.3,0,44.5C59.9,72.2,51.9,75.3,43.8,75.3z M43.8,20.3c-6,0-12,2.3-16.6,6.9c-9.2,9.2-9.2,24.1,0,33.2 c9.2,9.2,24.1,9.2,33.2,0c4.4-4.4,6.9-10.3,6.9-16.6s-2.4-12.2-6.9-16.6C55.8,22.6,49.8,20.3,43.8,20.3z" fill="#f89708" style="fill: rgb(248, 151, 8);"></path></g></g></g><metadata xmlns:d="https://loading.io/stock/" class="ld ld-static" style="transform-origin: 50px 50px 0px; animation-duration: 1s; animation-delay: -0.733333s; animation-direction: normal;">
<d:name class="ld ld-static" style="transform-origin: 50px 50px 0px; animation-duration: 1s; animation-delay: -0.666667s; animation-direction: normal;">magnify</d:name>
<d:tags class="ld ld-static" style="transform-origin: 50px 50px 0px; animation-duration: 1s; animation-delay: -0.6s; animation-direction: normal;">search,lookup,find,help,guide,documentation,magnify,web application</d:tags>
<d:license class="ld ld-static" style="transform-origin: 50px 50px 0px; animation-duration: 1s; animation-delay: -0.533333s; animation-direction: normal;">cc-by</d:license>
<d:slug class="ld ld-static" style="transform-origin: 50px 50px 0px; animation-duration: 1s; animation-delay: -0.466667s; animation-direction: normal;">ku1ziz</d:slug>
</metadata></g></g></g></g><style type="text/css" class="ld ld-static" style="transform-origin: 50px 50px 0px; animation-duration: 1s; animation-delay: -0.4s; animation-direction: normal;"></style></svg></svg>